PathFileType	4	(X/Y/Z)	c:/Users/goper/Files/vsCode/490R/osim_files/C08/C08_Fast_02.trc
DataRate	CameraRate	NumFrames	NumMarkers	Units                	OrigDataRate	OrigDataStartFrame	OrigNumFrames
250.00	250.00	8	36	mm	250.0	1068	2135
                Frame#	Time	LPSIS			LASIS			LTH1			LTH2			LTH3			LTH4			LLFE			LMFE			LSH1			LSH2			LSH3			LSH4			LLMAL			LMMAL			LCAL			LMTP5			LTOE			LMTP1			RPSIS			RASIS			RTH1			RTH2			RTH3			RTH4			RLFE			RMFE			RSH1			RSH2			RSH3			RSH4			RLMAL			RMMAL			RCAL			RMTP1			RTOE			RMTP5		
		X1	Y1	Z1	X2	Y2	Z2	X3	Y3	Z3	X4	Y4	Z4	X5	Y5	Z5	X6	Y6	Z6	X7	Y7	Z7	X8	Y8	Z8	X9	Y9	Z9	X10	Y10	Z10	X11	Y11	Z11	X12	Y12	Z12	X13	Y13	Z13	X14	Y14	Z14	X15	Y15	Z15	X16	Y16	Z16	X17	Y17	Z17	X18	Y18	Z18	X19	Y19	Z19	X20	Y20	Z20	X21	Y21	Z21	X22	Y22	Z22	X23	Y23	Z23	X24	Y24	Z24	X25	Y25	Z25	X26	Y26	Z26	X27	Y27	Z27	X28	Y28	Z28	X29	Y29	Z29	X30	Y30	Z30	X31	Y31	Z31	X32	Y32	Z32	X33	Y33	Z33	X34	Y34	Z34	X35	Y35	Z35	X36	Y36	Z36

1068	4.26800	-610.63312	1045.49670	243.99548	-814.27319	998.52350	333.19717	-676.32642	730.61908	396.33957	-657.41681	657.51520	375.95804	-643.46637	586.48834	366.93594	-735.23676	650.63409	356.65683	-631.16992	537.47394	357.72980	-634.03656	527.81165	227.66542	-550.97864	422.28198	363.48566	-546.82385	375.20798	363.21164	-611.49817	413.72885	363.85797	-599.62585	369.49625	361.12747	-505.64767	104.79176	303.13467	-529.47443	112.92928	214.12961	-439.24753	83.47736	246.05940	-615.02411	43.54215	335.18762	-679.67389	58.61232	277.25262	-644.38354	43.83028	223.06441	-612.11267	1039.55542	184.02617	-805.74371	1005.60425	96.33556	-825.92261	748.41119	33.71658	-858.93573	677.40796	46.81795	-892.18408	603.59869	60.81775	-925.29901	710.10455	75.05717	-919.25165	544.83179	72.91722	-924.76392	535.03699	198.11160	-880.38159	455.74948	55.58659	-893.67419	413.24646	48.84922	-940.93842	466.25180	62.14798	-946.20374	422.30060	54.63242	-944.29346	113.94183	95.96271	-977.70288	121.04820	181.73230	-895.85852	76.35116	168.65793	-1109.81055	84.90687	158.92516	-1116.47607	110.88961	105.17506	-1070.13098	77.63878	48.30832
1069	4.27200	-616.42993	1044.60046	243.92058	-819.92804	997.28583	333.47009	-680.70642	730.17334	396.47382	-661.30377	657.22491	376.03104	-646.94678	586.28284	366.94635	-739.07684	649.93878	356.72815	-634.29272	537.36841	357.78772	-637.24689	527.71625	227.75085	-553.20111	422.82144	363.37997	-548.84174	375.59512	363.11682	-613.79938	413.74670	363.89557	-601.68030	369.54315	361.12354	-506.14279	105.33117	302.98871	-530.06360	113.36497	213.97073	-439.78452	84.23286	245.86649	-615.09601	43.49160	335.17636	-679.07617	57.87735	277.07782	-644.53290	43.76888	223.00206	-618.03577	1038.60962	183.97006	-811.92163	1004.53748	96.45763	-830.37769	746.62610	33.81012	-863.26813	675.62000	46.91452	-896.38953	601.66534	60.29873	-929.76404	708.18109	74.84803	-924.87878	543.45294	72.97243	-930.10004	533.72052	198.35901	-887.78235	453.86066	55.17377	-902.05579	411.63599	48.47467	-948.09338	465.69400	62.01791	-954.36151	421.89691	54.50421	-959.89935	113.45504	95.55982	-993.07800	121.39470	181.42299	-912.66711	74.43775	167.48375	-1126.00171	88.65456	158.82391	-1132.02917	114.75946	104.89024	-1086.68445	80.16542	48.15603
1070	4.27600	-622.16376	1043.70447	243.86855	-825.59070	996.07788	333.79565	-685.17700	729.71783	396.59802	-665.31525	656.88165	376.05399	-650.49432	586.08197	366.95041	-743.10205	649.26770	356.76553	-637.49292	537.25323	357.83136	-640.55219	527.63232	227.82068	-555.62152	423.28940	363.27017	-550.97571	376.03308	363.02390	-616.11987	413.75470	363.90665	-603.83795	369.53076	360.96576	-506.65256	105.92580	302.83295	-530.66522	113.83778	213.82417	-440.14020	85.18879	245.72601	-615.17316	43.46379	335.16202	-679.30261	57.58559	277.09109	-644.96313	43.95089	224.12355	-623.97266	1037.67249	183.86440	-818.16260	1003.45117	96.54707	-834.75659	744.82251	33.78448	-867.56274	673.82416	46.89119	-900.56403	599.68359	59.94962	-934.22083	706.17926	74.57166	-930.45825	542.04150	72.99876	-935.40186	532.25446	198.15942	-895.13403	452.00943	54.81311	-910.35156	410.12067	48.14678	-955.12091	465.14328	61.92582	-962.40710	421.49451	54.41250	-975.25781	113.13723	95.27792	-1008.08118	121.91349	181.14217	-928.86871	73.09326	167.04921	-1141.83704	92.51868	158.70918	-1147.11816	118.66681	104.57745	-1102.81763	82.99693	47.88223
1071	4.28000	-627.88776	1042.81360	243.86841	-831.28149	994.90302	334.06769	-689.61078	729.30530	396.74811	-669.36487	656.59509	376.09210	-654.10968	585.89130	366.99231	-747.08832	648.55011	356.77209	-640.75201	537.17065	357.86432	-643.93555	527.59167	227.78513	-558.02435	423.62836	363.21771	-553.12354	376.49280	362.94229	-619.00916	413.93799	364.49603	-605.80115	369.71976	361.18555	-507.14542	106.54578	302.71405	-531.28760	114.33168	213.75174	-440.58145	86.14836	245.57365	-615.23920	43.42632	335.13943	-679.53821	57.32530	277.09906	-645.09436	43.83625	224.17461	-630.15509	1036.78979	183.59190	-824.38269	1002.37341	96.61058	-839.15448	743.03680	33.63171	-871.78589	672.02399	46.74942	-904.81073	597.78101	59.73236	-938.59650	704.13049	74.30994	-935.97058	540.60797	72.99622	-940.56726	531.59967	198.80562	-902.41571	450.17877	54.50908	-918.51831	408.58414	47.88973	-962.07849	464.52765	61.85981	-970.33081	421.12265	54.28999	-989.96228	113.25004	94.96979	-1022.73907	122.52006	180.92374	-944.72144	71.67005	166.75140	-1157.21350	96.45048	158.56523	-1162.04163	123.55905	103.44115	-1118.91541	85.57880	47.81972
1072	4.28400	-633.63391	1041.86865	243.79530	-837.15479	993.79791	334.31998	-693.34381	729.12231	398.12173	-673.44843	656.28723	376.17303	-657.80634	585.69128	367.01343	-751.13257	647.92242	356.82767	-644.10413	537.10651	357.92026	-647.51709	527.48322	227.88286	-560.56702	424.04584	363.13159	-555.34204	376.98947	362.84180	-621.44824	413.95703	364.53656	-607.95178	369.80594	361.21060	-507.69440	107.22833	302.61176	-531.92938	114.87967	213.63864	-441.03967	87.19775	245.46634	-615.34070	43.39565	335.13535	-679.77893	57.04235	277.08289	-645.23901	43.75907	224.32736	-635.54840	1035.98633	183.94055	-830.56573	1001.26190	96.73941	-843.60846	741.29315	33.38162	-876.07257	670.21124	46.45819	-908.53735	596.11133	59.01152	-942.97351	702.05841	73.98547	-941.41339	539.21509	72.95941	-945.76849	530.23401	198.66928	-909.57288	448.34540	54.23689	-926.58423	407.13907	47.61235	-968.89081	463.98322	61.72797	-977.74866	421.20267	53.82735	-1004.60168	113.27837	94.76511	-1037.13513	123.31902	180.76183	-960.27423	70.61002	166.52687	-1172.11047	100.46226	158.45906	-1175.34082	126.97820	102.87053	-1133.81921	88.77592	47.41512
1073	4.28800	-639.20239	1041.02429	243.88892	-843.17932	992.77478	334.52130	-697.73993	728.89355	398.21713	-677.66199	656.02441	376.23376	-661.65686	585.50763	367.04947	-755.32123	647.24255	356.87634	-647.56152	537.00629	357.94107	-651.08246	527.31952	227.89404	-563.26691	424.50348	363.48325	-557.64825	377.44464	362.76544	-623.54419	413.81287	364.01016	-610.21594	369.90625	361.23932	-508.23364	107.89201	302.52570	-532.62262	115.44679	213.58699	-441.56271	88.27023	245.36452	-615.45459	43.38695	335.15717	-680.78046	57.11682	277.31824	-645.45148	43.75749	224.70760	-641.38690	1035.03455	183.90872	-836.90057	1000.14795	96.84606	-848.11383	739.63885	33.03069	-880.41119	668.45984	46.04994	-912.89355	593.91785	58.64153	-947.35657	700.01575	73.68604	-946.70490	537.87103	72.87251	-950.88257	528.95703	198.55580	-916.61224	446.53824	54.01262	-934.48694	405.66702	47.41351	-975.58942	463.33194	61.63417	-985.38531	420.72775	53.75531	-1018.81573	113.41159	94.62305	-1051.03760	124.20616	180.59978	-975.39117	69.71719	166.38243	-1186.55737	104.43123	158.37021	-1190.07812	130.57278	103.97939	-1148.05164	92.03345	46.91507
1074	4.29200	-646.24634	1039.60498	242.85262	-848.01929	991.44153	335.16531	-702.26288	728.64520	398.35703	-681.97131	655.71521	376.30783	-665.61774	585.30286	367.09396	-759.65948	646.55823	356.98434	-651.09967	536.83215	357.94559	-654.97198	527.23077	227.92406	-566.05243	424.97858	363.02686	-560.11853	377.91824	362.69858	-626.27759	413.80853	364.03802	-612.62903	369.98343	361.26373	-508.86655	108.64636	302.49295	-533.30298	116.05552	213.55644	-442.10886	89.37798	245.36382	-615.59094	43.33036	335.19211	-681.01361	56.84894	277.34613	-645.62982	43.69907	224.82683	-647.42511	1034.03943	183.80144	-843.20618	998.99347	96.90207	-852.71729	738.09766	32.55174	-884.79352	666.81140	45.58557	-917.07336	592.11517	58.15686	-951.84546	698.06799	73.28422	-951.87915	536.56177	72.67498	-955.93134	527.68909	198.49689	-923.48639	444.78207	53.84021	-942.16827	404.28070	47.24549	-982.02191	462.75003	61.45354	-992.82031	420.21252	53.74198	-1032.64844	113.66104	94.54971	-1064.60791	125.19937	180.47235	-990.01202	69.44684	166.43553	-1200.46570	108.38409	158.32509	-1203.40344	134.51279	103.88183	-1162.46997	95.13280	47.03164
1075	4.29600	-652.16638	1038.69824	242.63989	-853.87299	990.33594	335.41702	-706.88617	728.36346	398.48743	-686.39594	655.40222	376.38037	-669.68262	585.06262	367.13052	-764.05530	645.93256	357.11380	-655.00385	536.73822	357.97238	-658.78693	527.02551	227.98508	-567.44348	426.23914	362.32330	-562.66931	378.39981	362.66525	-629.10583	413.79117	364.06744	-615.28430	369.96530	361.12238	-509.49347	109.39709	302.47513	-534.03308	116.65480	213.54555	-442.63831	90.58635	245.32501	-615.73987	43.31543	335.22339	-681.23669	56.58363	277.36145	-645.67206	43.45139	224.19664	-653.41907	1033.07886	183.68869	-849.50525	997.84216	96.93861	-857.48029	736.67206	32.03833	-889.32886	665.23627	45.09408	-921.05737	590.41571	57.59667	-956.45239	696.23151	72.87779	-956.90491	535.32233	72.44352	-960.93311	526.33728	198.39667	-930.16748	443.09109	53.70629	-949.62103	402.91245	47.13610	-988.39801	462.10501	61.34035	-1000.11115	419.70407	53.72748	-1046.01318	114.03020	94.47507	-1077.68054	126.30695	180.39915	-1003.99664	68.96062	166.58678	-1213.91614	112.20280	158.26749	-1216.26941	138.39790	103.80529	-1176.12878	98.12267	46.91496
